<?xml version="1.0" encoding="UTF-8"?>
<!DOCTYPE svg PUBLIC "-//W3C//DTD SVG 1.1//EN" "http://www.w3.org/Graphics/SVG/1.1/DTD/svg11.dtd">
<!-- Creator: CorelDRAW 2017 -->
<svg xmlns="http://www.w3.org/2000/svg" xml:space="preserve" width="4.7033mm" height="5.5904mm" version="1.1" style="shape-rendering:geometricPrecision; text-rendering:geometricPrecision; image-rendering:optimizeQuality; fill-rule:evenodd; clip-rule:evenodd"
viewBox="0 0 99.83 118.67"
 xmlns:xlink="http://www.w3.org/1999/xlink">
 <defs>
  <style type="text/css">
   <![CDATA[
    .fil0 {fill:black;fill-rule:nonzero}
   ]]>
  </style>
 </defs>
 <g id="Camada_x0020_1">
  <metadata id="CorelCorpID_0Corel-Layer"/>
  <path class="fil0" d="M50.63 40.22l-33.13 0c3.66,3.68 7.45,7.85 10.76,11.16l-16.46 16.47c-1.38,1.37 -2.41,2.86 -3.09,4.45 -0.68,1.57 -1.01,3.28 -1.01,5.1l0 17.66 38.73 0c0.03,0.53 0.06,1.07 0.12,1.59l0.72 4.08c0.17,0.68 0.37,1.36 0.59,2.02l-47.86 0 0 -25.37c0,-2.97 0.56,-5.81 1.66,-8.39 1.07,-2.49 2.65,-4.72 4.74,-6.57l11.05 -11.06 -11.05 -11.05c-2.09,-2.09 -3.67,-4.45 -4.74,-6.94 -1.11,-2.59 -1.66,-5.31 -1.66,-8.03l0 -25.36 67.73 0 0 25.36c0,2.97 -0.55,5.81 -1.66,8.39 -1.07,2.49 -2.65,4.73 -4.74,6.57l-11.05 11.06 4.57 4.57 0 1.9 0.02 0.02 -0.02 1.35 0 0.53 -0.01 -0.01 -0.04 3.15 0.05 0.05 0 3.97c-4.92,-4.31 -10.66,-10.81 -15.38,-15.54l11.16 -11.16zm40.99 35.05c1.06,0.96 2.04,2.01 2.92,3.13 1.05,1.35 1.97,2.8 2.73,4.33 0.83,1.69 1.48,3.49 1.92,5.36 0.42,1.83 0.65,3.72 0.65,5.65 0,3.36 -0.68,6.57 -1.89,9.52 -1.27,3.06 -3.12,5.81 -5.41,8.1 -2.29,2.29 -5.04,4.15 -8.1,5.41 -2.94,1.22 -6.16,1.9 -9.52,1.9 -3.36,0 -6.58,-0.68 -9.52,-1.89 -3.07,-1.27 -5.81,-3.12 -8.1,-5.41 -4.5,-4.5 -7.3,-10.74 -7.3,-17.62 0,-1.96 0.23,-3.88 0.67,-5.73 0.45,-1.89 1.12,-3.71 1.98,-5.42 0.79,-1.58 1.74,-3.05 2.81,-4.39 0.9,-1.13 1.91,-2.19 3,-3.15l0 -19.84 33.18 0 0 20.06zm-1.36 10.93c-0.58,-1.18 -1.3,-2.29 -2.12,-3.29 -0.83,-1.01 -1.77,-1.93 -2.82,-2.73l-1.54 -1.18 0 -15.95 -17.49 0 0 15.82 -1.58 1.17c-1.07,0.8 -2.05,1.73 -2.9,2.74 -0.85,1.01 -1.59,2.12 -2.18,3.3 -0.58,1.15 -1.03,2.4 -1.34,3.71 -0.3,1.25 -0.45,2.58 -0.45,3.95 0,2.33 0.46,4.54 1.29,6.54 0.86,2.07 2.13,3.96 3.71,5.54 1.58,1.58 3.47,2.86 5.54,3.71 2,0.83 4.21,1.29 6.54,1.29 2.33,0 4.54,-0.46 6.54,-1.29 2.08,-0.86 3.97,-2.13 5.54,-3.7 1.58,-1.59 2.85,-3.47 3.71,-5.55 0.83,-2 1.29,-4.21 1.29,-6.54 0,-1.36 -0.15,-2.66 -0.44,-3.89 -0.3,-1.28 -0.74,-2.51 -1.3,-3.65zm-80.57 -53.67l48.23 0c0.44,-0.67 0.81,-1.35 1.11,-2.06 0.67,-1.57 1.01,-3.28 1.01,-5.1l0 -17.66 -52.34 0 0 17.66c0,1.89 0.36,3.77 1.08,5.45 0.26,0.6 0.56,1.17 0.9,1.71z"/>
 </g>
</svg>
