<?xml version="1.0" encoding="UTF-8"?>
<!DOCTYPE svg PUBLIC "-//W3C//DTD SVG 1.1//EN" "http://www.w3.org/Graphics/SVG/1.1/DTD/svg11.dtd">
<!-- Creator: CorelDRAW 2017 -->
<svg xmlns="http://www.w3.org/2000/svg" xml:space="preserve" width="4.9275mm" height="5.4968mm" version="1.1" style="shape-rendering:geometricPrecision; text-rendering:geometricPrecision; image-rendering:optimizeQuality; fill-rule:evenodd; clip-rule:evenodd"
viewBox="0 0 70.74 78.92"
 xmlns:xlink="http://www.w3.org/1999/xlink">
 <defs>
  <style type="text/css">
   <![CDATA[
    .fil0 {fill:black;fill-rule:nonzero}
   ]]>
  </style>
 </defs>
 <g id="Camada_x0020_1">
  <metadata id="CorelCorpID_0Corel-Layer"/>
  <path class="fil0" d="M11.84 27.2c2.48,2.49 5.04,5.31 7.28,7.55l-11.13 11.14c-0.93,0.93 -1.63,1.94 -2.09,3.01 -0.46,1.06 -0.69,2.22 -0.69,3.45l0 11.95 23.85 0c0.67,0.72 1.55,1.25 2.56,1.49l1.31 0.31 -0.96 1.59c-0.29,0.58 -0.45,1.2 -0.5,1.82l-31.47 0 0 -17.16c0,-2.01 0.38,-3.93 1.12,-5.67 0.72,-1.68 1.79,-3.19 3.21,-4.45l7.48 -7.48 -7.48 -7.48c-1.41,-1.41 -2.48,-3.01 -3.2,-4.69 -0.75,-1.75 -1.12,-3.59 -1.12,-5.43l0 -17.15 45.81 0 0 17.15c0,2.01 -0.37,3.93 -1.12,5.67 -0.72,1.68 -1.79,3.2 -3.21,4.44l-7.48 7.48 4.9 4.9c-0.36,0.04 -0.71,0.12 -1.05,0.23l0 0 -2.74 2 -0 -0 -0.78 0.78c-2.59,-2.58 -5.3,-5.57 -7.65,-7.91l7.55 -7.55 -22.41 0zm54.23 26.55l2.88 0.67c0.52,0.12 0.97,0.41 1.29,0.81 0.32,0.4 0.5,0.9 0.5,1.43l0 4.21c0,0.54 -0.18,1.04 -0.5,1.44 -0.31,0.39 -0.76,0.69 -1.28,0.81l-2.88 0.67c-0.13,0.4 -0.28,0.81 -0.45,1.2 -0.16,0.39 -0.34,0.78 -0.54,1.17l1.57 2.52c0.28,0.46 0.39,0.98 0.33,1.48 -0.06,0.5 -0.28,0.99 -0.66,1.37l-2.97 2.97c-0.38,0.38 -0.87,0.6 -1.37,0.66 -0.5,0.06 -1.02,-0.05 -1.48,-0.34l-2.52 -1.56c-0.38,0.2 -0.77,0.37 -1.17,0.54 -0.39,0.16 -0.8,0.31 -1.2,0.45l-0.67 2.88c-0.12,0.52 -0.41,0.97 -0.81,1.28 -0.4,0.32 -0.9,0.5 -1.44,0.5l-4.21 0c-0.53,0 -1.04,-0.18 -1.44,-0.5 -0.39,-0.31 -0.69,-0.76 -0.81,-1.28l-0.67 -2.89c-0.41,-0.13 -0.81,-0.28 -1.2,-0.44 -0.39,-0.16 -0.78,-0.34 -1.16,-0.54l-2.52 1.57c-0.46,0.28 -0.99,0.39 -1.48,0.33 -0.51,-0.06 -0.99,-0.29 -1.37,-0.66l-2.97 -2.97c-0.38,-0.38 -0.61,-0.87 -0.66,-1.37 -0.06,-0.5 0.05,-1.02 0.34,-1.48l1.56 -2.52c-0.2,-0.38 -0.37,-0.77 -0.54,-1.17 -0.16,-0.39 -0.31,-0.8 -0.45,-1.2l-2.88 -0.67c-0.52,-0.12 -0.97,-0.42 -1.28,-0.81 -0.32,-0.4 -0.5,-0.9 -0.5,-1.44l0 -4.21c0,-0.53 0.19,-1.04 0.5,-1.43 0.31,-0.4 0.76,-0.69 1.28,-0.81l2.89 -0.67c0.13,-0.41 0.28,-0.82 0.44,-1.2 0.16,-0.39 0.34,-0.78 0.54,-1.16l-1.57 -2.52c-0.28,-0.46 -0.39,-0.98 -0.34,-1.48 0.06,-0.5 0.29,-0.99 0.66,-1.37l2.97 -2.97c0.38,-0.38 0.87,-0.61 1.38,-0.66 0.5,-0.06 1.02,0.05 1.48,0.34l2.52 1.57c0.38,-0.19 0.77,-0.37 1.16,-0.54 0.39,-0.16 0.79,-0.31 1.2,-0.44l0.67 -2.89c0.12,-0.52 0.41,-0.97 0.81,-1.28 0.4,-0.32 0.9,-0.5 1.44,-0.5l4.21 0c0.53,0 1.04,0.19 1.43,0.5 0.39,0.31 0.69,0.76 0.81,1.28l0.67 2.89c0.41,0.13 0.81,0.28 1.2,0.44 0.39,0.16 0.78,0.34 1.17,0.54l2.52 -1.57c0.46,-0.28 0.98,-0.39 1.48,-0.34 0.5,0.06 0.99,0.29 1.37,0.66l2.97 2.97c0.38,0.38 0.61,0.86 0.66,1.37 0.06,0.5 -0.05,1.03 -0.33,1.48l-1.57 2.52c0.19,0.38 0.37,0.77 0.54,1.16 0.16,0.39 0.31,0.79 0.44,1.2zm-2.07 6.17l2.5 -0.58 0 -1.14 -2.5 -0.58c-0.43,-0.1 -0.81,-0.31 -1.1,-0.61 -0.29,-0.29 -0.51,-0.67 -0.62,-1.1 -0.15,-0.6 -0.34,-1.18 -0.57,-1.75 -0.24,-0.57 -0.52,-1.12 -0.83,-1.64 -0.23,-0.38 -0.34,-0.8 -0.34,-1.21 0.01,-0.42 0.12,-0.84 0.35,-1.21l1.36 -2.19 -0.8 -0.8 -2.18 1.36c-0.37,0.23 -0.79,0.34 -1.21,0.35 -0.41,0 -0.84,-0.11 -1.2,-0.33 -0.53,-0.32 -1.08,-0.61 -1.65,-0.84 -0.57,-0.24 -1.15,-0.43 -1.74,-0.57 -0.43,-0.1 -0.81,-0.32 -1.1,-0.62 -0.29,-0.3 -0.51,-0.68 -0.61,-1.1l-0.58 -2.5 -1.14 0 -0.58 2.5c-0.1,0.43 -0.31,0.81 -0.61,1.1 -0.29,0.3 -0.67,0.51 -1.1,0.62 -0.59,0.14 -1.17,0.34 -1.74,0.57 -0.58,0.24 -1.13,0.52 -1.65,0.84 -0.37,0.23 -0.79,0.34 -1.21,0.34 -0.42,-0 -0.84,-0.12 -1.2,-0.35l-2.18 -1.36 -0.8 0.8 1.36 2.18c0.23,0.37 0.35,0.79 0.35,1.21 0,0.41 -0.11,0.83 -0.34,1.21 -0.32,0.52 -0.6,1.07 -0.83,1.64 -0.24,0.57 -0.43,1.16 -0.57,1.75 -0.1,0.43 -0.32,0.81 -0.61,1.1 -0.3,0.3 -0.68,0.51 -1.11,0.61l-2.5 0.58 0 1.14 2.5 0.58c0.43,0.1 0.8,0.31 1.1,0.61 0.3,0.29 0.52,0.67 0.62,1.1 0.14,0.59 0.34,1.18 0.57,1.75 0.24,0.57 0.51,1.12 0.83,1.64 0.23,0.37 0.34,0.79 0.34,1.21 -0.01,0.42 -0.12,0.84 -0.35,1.21l-1.36 2.18 0.8 0.8 2.18 -1.36c0.37,-0.23 0.79,-0.35 1.21,-0.35 0.41,-0 0.83,0.11 1.21,0.34 0.53,0.32 1.08,0.6 1.65,0.83 0.56,0.24 1.15,0.43 1.75,0.57 0.42,0.1 0.8,0.32 1.09,0.62 0.29,0.3 0.51,0.68 0.61,1.1l0.58 2.5 1.14 0 0.58 -2.5c0.1,-0.43 0.31,-0.81 0.61,-1.1 0.29,-0.3 0.67,-0.51 1.09,-0.62 0.59,-0.15 1.18,-0.34 1.75,-0.57 0.57,-0.24 1.12,-0.52 1.64,-0.83 0.38,-0.23 0.8,-0.34 1.21,-0.34 0.42,0.01 0.84,0.12 1.21,0.35l2.18 1.36 0.8 -0.8 -1.36 -2.18c-0.23,-0.37 -0.35,-0.79 -0.35,-1.21 -0,-0.41 0.11,-0.83 0.34,-1.21 0.32,-0.52 0.6,-1.08 0.83,-1.64 0.23,-0.56 0.43,-1.15 0.57,-1.75 0.1,-0.42 0.32,-0.8 0.62,-1.09 0.3,-0.3 0.68,-0.51 1.1,-0.61zm-57.45 -37.92l32.62 0c0.3,-0.45 0.55,-0.91 0.75,-1.39 0.46,-1.06 0.68,-2.22 0.68,-3.45l0 -11.95 -35.4 0 0 11.95c0,1.28 0.25,2.55 0.73,3.69 0.17,0.4 0.38,0.79 0.61,1.16z"/>
 </g>
</svg>
